<svg xmlns="http://www.w3.org/2000/svg" xmlns:xlink="http://www.w3.org/1999/xlink" viewBox="0 0 512 512"><defs><linearGradient id="static-dust-night-a" x1="6" x2="18" y1="169.6" y2="190.4" gradientUnits="userSpaceOnUse"><stop offset="0" stop-color="#fde68a"/><stop offset=".5" stop-color="#fde68a"/><stop offset="1" stop-color="#fde171"/></linearGradient><linearGradient xlink:href="#static-dust-night-a" id="static-dust-night-b" x1="66" x2="78" y1="169.6" y2="190.4"/><linearGradient xlink:href="#static-dust-night-a" id="static-dust-night-c" x1="38" x2="50" y1="137.6" y2="158.4"/><linearGradient xlink:href="#static-dust-night-a" id="static-dust-night-d" x1="98" x2="110" y1="137.6" y2="158.4"/><linearGradient xlink:href="#static-dust-night-a" id="static-dust-night-e" x1="70" x2="82" y1="101.6" y2="122.4"/><linearGradient xlink:href="#static-dust-night-a" id="static-dust-night-f" x1="130" x2="142" y1="101.6" y2="122.4"/><linearGradient xlink:href="#static-dust-night-a" id="static-dust-night-g" x1="102" x2="114" y1="69.6" y2="90.4"/><linearGradient xlink:href="#static-dust-night-a" id="static-dust-night-h" x1="162" x2="174" y1="69.6" y2="90.4"/><linearGradient xlink:href="#static-dust-night-a" id="static-dust-night-i" x1="134" x2="146" y1="33.6" y2="54.4"/><linearGradient xlink:href="#static-dust-night-a" id="static-dust-night-j" x1="194" x2="206" y1="33.6" y2="54.4"/><linearGradient xlink:href="#static-dust-night-a" id="static-dust-night-k" x1="166" x2="178" y1="1.6" y2="22.4"/><linearGradient xlink:href="#static-dust-night-a" id="static-dust-night-l" x1="226" x2="238" y1="1.6" y2="22.4"/><linearGradient id="static-dust-night-m" x1="54.3" x2="187.2" y1="29" y2="259.1" gradientUnits="userSpaceOnUse"><stop offset="0" stop-color="#86c3db"/><stop offset=".5" stop-color="#86c3db"/><stop offset="1" stop-color="#5eafcf"/></linearGradient><symbol id="static-dust-night-o" viewBox="0 0 270 270"><path fill="url(#static-dust-night-m)" stroke="#72b9d5" stroke-linecap="round" stroke-linejoin="round" stroke-width="6" d="M252.3 168.6A133.4 133.4 0 01118 36.2 130.5 130.5 0 01122.5 3 133 133 0 003 134.6C3 207.7 63 267 137.2 267c62.5 0 114.8-42.2 129.8-99.2a135.6 135.6 0 01-14.8.8Z"/></symbol><symbol id="static-dust-night-p" viewBox="0 0 244 192"><circle cx="12" cy="180" r="12" fill="url(#static-dust-night-a)"/><circle cx="72" cy="180" r="12" fill="url(#static-dust-night-b)"/><circle cx="44" cy="148" r="12" fill="url(#static-dust-night-c)"/><circle cx="104" cy="148" r="12" fill="url(#static-dust-night-d)"/><circle cx="76" cy="112" r="12" fill="url(#static-dust-night-e)"/><circle cx="136" cy="112" r="12" fill="url(#static-dust-night-f)"/><circle cx="108" cy="80" r="12" fill="url(#static-dust-night-g)"/><circle cx="168" cy="80" r="12" fill="url(#static-dust-night-h)"/><circle cx="140" cy="44" r="12" fill="url(#static-dust-night-i)"/><circle cx="200" cy="44" r="12" fill="url(#static-dust-night-j)"/><circle cx="172" cy="12" r="12" fill="url(#static-dust-night-k)"/><circle cx="232" cy="12" r="12" fill="url(#static-dust-night-l)"/></symbol><clipPath id="static-dust-night-n"><path fill="none" d="M0 0h512L0 512V0z"/></clipPath></defs><g clip-path="url(#static-dust-night-n)"><use xlink:href="#static-dust-night-o" width="270" height="270" transform="translate(121 121)"/></g><use xlink:href="#static-dust-night-p" width="244" height="192" transform="translate(192 182)"/></svg>